<svg width="93" height="20" viewBox="0 0 93 20" fill="none" xmlns="http://www.w3.org/2000/svg">
<path d="M4.08398 13.959H1.91016V12.5879H4.08398C4.41992 12.5879 4.69336 12.5332 4.9043 12.4238C5.11523 12.3105 5.26953 12.1543 5.36719 11.9551C5.46484 11.7559 5.51367 11.5312 5.51367 11.2812C5.51367 11.0273 5.46484 10.791 5.36719 10.5723C5.26953 10.3535 5.11523 10.1777 4.9043 10.0449C4.69336 9.91211 4.41992 9.8457 4.08398 9.8457H2.51953V17H0.761719V8.46875H4.08398C4.75195 8.46875 5.32422 8.58984 5.80078 8.83203C6.28125 9.07031 6.64844 9.40039 6.90234 9.82227C7.15625 10.2441 7.2832 10.7266 7.2832 11.2695C7.2832 11.8203 7.15625 12.2969 6.90234 12.6992C6.64844 13.1016 6.28125 13.4121 5.80078 13.6309C5.32422 13.8496 4.75195 13.959 4.08398 13.959ZM8.03906 13.8945V13.7715C8.03906 13.3066 8.10547 12.8789 8.23828 12.4883C8.37109 12.0938 8.56445 11.752 8.81836 11.4629C9.07227 11.1738 9.38477 10.9492 9.75586 10.7891C10.127 10.625 10.5527 10.543 11.0332 10.543C11.5137 10.543 11.9414 10.625 12.3164 10.7891C12.6914 10.9492 13.0059 11.1738 13.2598 11.4629C13.5176 11.752 13.7129 12.0938 13.8457 12.4883C13.9785 12.8789 14.0449 13.3066 14.0449 13.7715V13.8945C14.0449 14.3555 13.9785 14.7832 13.8457 15.1777C13.7129 15.5684 13.5176 15.9102 13.2598 16.2031C13.0059 16.4922 12.6934 16.7168 12.3223 16.877C11.9512 17.0371 11.5254 17.1172 11.0449 17.1172C10.5645 17.1172 10.1367 17.0371 9.76172 16.877C9.39062 16.7168 9.07617 16.4922 8.81836 16.2031C8.56445 15.9102 8.37109 15.5684 8.23828 15.1777C8.10547 14.7832 8.03906 14.3555 8.03906 13.8945ZM9.72656 13.7715V13.8945C9.72656 14.1602 9.75 14.4082 9.79688 14.6387C9.84375 14.8691 9.91797 15.0723 10.0195 15.248C10.125 15.4199 10.2617 15.5547 10.4297 15.6523C10.5977 15.75 10.8027 15.7988 11.0449 15.7988C11.2793 15.7988 11.4805 15.75 11.6484 15.6523C11.8164 15.5547 11.9512 15.4199 12.0527 15.248C12.1543 15.0723 12.2285 14.8691 12.2754 14.6387C12.3262 14.4082 12.3516 14.1602 12.3516 13.8945V13.7715C12.3516 13.5137 12.3262 13.2715 12.2754 13.0449C12.2285 12.8145 12.1523 12.6113 12.0469 12.4355C11.9453 12.2559 11.8105 12.1152 11.6426 12.0137C11.4746 11.9121 11.2715 11.8613 11.0332 11.8613C10.7949 11.8613 10.5918 11.9121 10.4238 12.0137C10.2598 12.1152 10.125 12.2559 10.0195 12.4355C9.91797 12.6113 9.84375 12.8145 9.79688 13.0449C9.75 13.2715 9.72656 13.5137 9.72656 13.7715ZM16.8926 15.3594L18.2109 10.6602H19.2832L18.9375 12.5059L17.6191 17H16.7227L16.8926 15.3594ZM16.2246 10.6602L17.168 15.3535L17.2559 17H16.2012L14.5957 10.6602H16.2246ZM20.4902 15.2773L21.4102 10.6602H23.0449L21.4395 17H20.3906L20.4902 15.2773ZM19.4297 10.6602L20.7422 15.3242L20.9238 17H20.0215L18.7031 12.5117L18.3691 10.6602H19.4297ZM26.8125 17.1172C26.3203 17.1172 25.8789 17.0391 25.4883 16.8828C25.0977 16.7227 24.7656 16.502 24.4922 16.2207C24.2227 15.9395 24.0156 15.6133 23.8711 15.2422C23.7266 14.8672 23.6543 14.4688 23.6543 14.0469V13.8125C23.6543 13.332 23.7227 12.8926 23.8594 12.4941C23.9961 12.0957 24.1914 11.75 24.4453 11.457C24.7031 11.1641 25.0156 10.9395 25.3828 10.7832C25.75 10.623 26.1641 10.543 26.625 10.543C27.0742 10.543 27.4727 10.6172 27.8203 10.7656C28.168 10.9141 28.459 11.125 28.6934 11.3984C28.9316 11.6719 29.1113 12 29.2324 12.3828C29.3535 12.7617 29.4141 13.1836 29.4141 13.6484V14.3516H24.375V13.2266H27.7559V13.0977C27.7559 12.8633 27.7129 12.6543 27.627 12.4707C27.5449 12.2832 27.4199 12.1348 27.252 12.0254C27.084 11.916 26.8691 11.8613 26.6074 11.8613C26.3848 11.8613 26.1934 11.9102 26.0332 12.0078C25.873 12.1055 25.7422 12.2422 25.6406 12.418C25.543 12.5938 25.4688 12.8008 25.418 13.0391C25.3711 13.2734 25.3477 13.5312 25.3477 13.8125V14.0469C25.3477 14.3008 25.3828 14.5352 25.4531 14.75C25.5273 14.9648 25.6309 15.1504 25.7637 15.3066C25.9004 15.4629 26.0645 15.584 26.2559 15.6699C26.4512 15.7559 26.6719 15.7988 26.918 15.7988C27.2227 15.7988 27.5059 15.7402 27.7676 15.623C28.0332 15.502 28.2617 15.3203 28.4531 15.0781L29.2734 15.9688C29.1406 16.1602 28.959 16.3438 28.7285 16.5195C28.502 16.6953 28.2285 16.8398 27.9082 16.9531C27.5879 17.0625 27.2227 17.1172 26.8125 17.1172ZM32.0625 12.043V17H30.375V10.6602H31.9629L32.0625 12.043ZM33.9727 10.6191L33.9434 12.1836C33.8613 12.1719 33.7617 12.1621 33.6445 12.1543C33.5312 12.1426 33.4277 12.1367 33.334 12.1367C33.0957 12.1367 32.8887 12.168 32.7129 12.2305C32.541 12.2891 32.3965 12.377 32.2793 12.4941C32.166 12.6113 32.0801 12.7539 32.0215 12.9219C31.9668 13.0898 31.9355 13.2812 31.9277 13.4961L31.5879 13.3906C31.5879 12.9805 31.6289 12.6035 31.7109 12.2598C31.793 11.9121 31.9121 11.6094 32.0684 11.3516C32.2285 11.0938 32.4238 10.8945 32.6543 10.7539C32.8848 10.6133 33.1484 10.543 33.4453 10.543C33.5391 10.543 33.6348 10.5508 33.7324 10.5664C33.8301 10.5781 33.9102 10.5957 33.9727 10.6191ZM37.5703 17.1172C37.0781 17.1172 36.6367 17.0391 36.2461 16.8828C35.8555 16.7227 35.5234 16.502 35.25 16.2207C34.9805 15.9395 34.7734 15.6133 34.6289 15.2422C34.4844 14.8672 34.4121 14.4688 34.4121 14.0469V13.8125C34.4121 13.332 34.4805 12.8926 34.6172 12.4941C34.7539 12.0957 34.9492 11.75 35.2031 11.457C35.4609 11.1641 35.7734 10.9395 36.1406 10.7832C36.5078 10.623 36.9219 10.543 37.3828 10.543C37.832 10.543 38.2305 10.6172 38.5781 10.7656C38.9258 10.9141 39.2168 11.125 39.4512 11.3984C39.6895 11.6719 39.8691 12 39.9902 12.3828C40.1113 12.7617 40.1719 13.1836 40.1719 13.6484V14.3516H35.1328V13.2266H38.5137V13.0977C38.5137 12.8633 38.4707 12.6543 38.3848 12.4707C38.3027 12.2832 38.1777 12.1348 38.0098 12.0254C37.8418 11.916 37.627 11.8613 37.3652 11.8613C37.1426 11.8613 36.9512 11.9102 36.791 12.0078C36.6309 12.1055 36.5 12.2422 36.3984 12.418C36.3008 12.5938 36.2266 12.8008 36.1758 13.0391C36.1289 13.2734 36.1055 13.5312 36.1055 13.8125V14.0469C36.1055 14.3008 36.1406 14.5352 36.2109 14.75C36.2852 14.9648 36.3887 15.1504 36.5215 15.3066C36.6582 15.4629 36.8223 15.584 37.0137 15.6699C37.209 15.7559 37.4297 15.7988 37.6758 15.7988C37.9805 15.7988 38.2637 15.7402 38.5254 15.623C38.791 15.502 39.0195 15.3203 39.2109 15.0781L40.0312 15.9688C39.8984 16.1602 39.7168 16.3438 39.4863 16.5195C39.2598 16.6953 38.9863 16.8398 38.666 16.9531C38.3457 17.0625 37.9805 17.1172 37.5703 17.1172ZM44.877 15.6172V8H46.5762V17H45.0469L44.877 15.6172ZM40.8691 13.9062V13.7832C40.8691 13.2988 40.9238 12.8594 41.0332 12.4648C41.1426 12.0664 41.3027 11.7246 41.5137 11.4395C41.7246 11.1543 41.9844 10.9336 42.293 10.7773C42.6016 10.6211 42.9531 10.543 43.3477 10.543C43.7188 10.543 44.043 10.6211 44.3203 10.7773C44.6016 10.9336 44.8398 11.1562 45.0352 11.4453C45.2344 11.7305 45.3945 12.0684 45.5156 12.459C45.6367 12.8457 45.7246 13.2695 45.7793 13.7305V14C45.7246 14.4414 45.6367 14.8516 45.5156 15.2305C45.3945 15.6094 45.2344 15.9414 45.0352 16.2266C44.8398 16.5078 44.6016 16.7266 44.3203 16.8828C44.0391 17.0391 43.7109 17.1172 43.3359 17.1172C42.9414 17.1172 42.5898 17.0371 42.2812 16.877C41.9766 16.7168 41.7188 16.4922 41.5078 16.2031C41.3008 15.9141 41.1426 15.5742 41.0332 15.1836C40.9238 14.793 40.8691 14.3672 40.8691 13.9062ZM42.5566 13.7832V13.9062C42.5566 14.168 42.5762 14.4121 42.6152 14.6387C42.6582 14.8652 42.7266 15.0664 42.8203 15.2422C42.918 15.4141 43.043 15.5488 43.1953 15.6465C43.3516 15.7402 43.541 15.7871 43.7637 15.7871C44.0527 15.7871 44.291 15.7227 44.4785 15.5938C44.666 15.4609 44.8086 15.2793 44.9062 15.0488C45.0078 14.8184 45.0664 14.5527 45.082 14.252V13.4844C45.0703 13.2383 45.0352 13.0176 44.9766 12.8223C44.9219 12.623 44.8398 12.4531 44.7305 12.3125C44.625 12.1719 44.4922 12.0625 44.332 11.9844C44.1758 11.9062 43.9902 11.8672 43.7754 11.8672C43.5566 11.8672 43.3691 11.918 43.2129 12.0195C43.0566 12.1172 42.9297 12.252 42.832 12.4238C42.7383 12.5957 42.668 12.7988 42.6211 13.0332C42.5781 13.2637 42.5566 13.5137 42.5566 13.7832ZM50.8828 8H52.5703V15.5469L52.4004 17H50.8828V8ZM56.584 13.7656V13.8887C56.584 14.3613 56.5332 14.7949 56.4316 15.1895C56.334 15.584 56.1816 15.9258 55.9746 16.2148C55.7676 16.5 55.5098 16.7227 55.2012 16.8828C54.8965 17.0391 54.5371 17.1172 54.123 17.1172C53.7363 17.1172 53.4004 17.0391 53.1152 16.8828C52.834 16.7266 52.5977 16.5059 52.4062 16.2207C52.2148 15.9355 52.0605 15.6016 51.9434 15.2188C51.8262 14.8359 51.7383 14.418 51.6797 13.9648V13.6953C51.7383 13.2422 51.8262 12.8242 51.9434 12.4414C52.0605 12.0586 52.2148 11.7246 52.4062 11.4395C52.5977 11.1543 52.834 10.9336 53.1152 10.7773C53.3965 10.6211 53.7285 10.543 54.1113 10.543C54.5293 10.543 54.8926 10.623 55.2012 10.7832C55.5137 10.9395 55.7715 11.1621 55.9746 11.4512C56.1816 11.7363 56.334 12.0762 56.4316 12.4707C56.5332 12.8613 56.584 13.293 56.584 13.7656ZM54.8965 13.8887V13.7656C54.8965 13.5078 54.877 13.2656 54.8379 13.0391C54.8027 12.8086 54.7402 12.6074 54.6504 12.4355C54.5605 12.2598 54.4375 12.1211 54.2812 12.0195C54.1289 11.918 53.9316 11.8672 53.6895 11.8672C53.459 11.8672 53.2637 11.9062 53.1035 11.9844C52.9434 12.0625 52.8105 12.1719 52.7051 12.3125C52.6035 12.4531 52.5273 12.6211 52.4766 12.8164C52.4258 13.0078 52.3945 13.2188 52.3828 13.4492V14.2168C52.3945 14.5254 52.4453 14.7988 52.5352 15.0371C52.6289 15.2715 52.7695 15.457 52.957 15.5938C53.1484 15.7266 53.3965 15.793 53.7012 15.793C53.9395 15.793 54.1367 15.7461 54.293 15.6523C54.4492 15.5586 54.5703 15.4258 54.6562 15.2539C54.7461 15.082 54.8086 14.8809 54.8438 14.6504C54.8789 14.416 54.8965 14.1621 54.8965 13.8887ZM59.4434 16.2852L61.125 10.6602H62.9355L60.3867 17.9551C60.332 18.1152 60.2578 18.2871 60.1641 18.4707C60.0742 18.6543 59.9512 18.8281 59.7949 18.9922C59.6426 19.1602 59.4492 19.2969 59.2148 19.4023C58.9844 19.5078 58.7012 19.5605 58.3652 19.5605C58.2051 19.5605 58.0742 19.5508 57.9727 19.5312C57.8711 19.5117 57.75 19.4844 57.6094 19.4492V18.2129C57.6523 18.2129 57.6973 18.2129 57.7441 18.2129C57.791 18.2168 57.8359 18.2188 57.8789 18.2188C58.1016 18.2188 58.2832 18.1934 58.4238 18.1426C58.5645 18.0918 58.6777 18.0137 58.7637 17.9082C58.8496 17.8066 58.918 17.6738 58.9688 17.5098L59.4434 16.2852ZM58.7402 10.6602L60.1172 15.2539L60.3574 17.041L59.209 17.1641L56.9297 10.6602H58.7402ZM69.3633 17H67.4707L67.4824 15.418H69.3633C69.7539 15.418 70.084 15.3242 70.3535 15.1367C70.627 14.9492 70.834 14.6699 70.9746 14.2988C71.1191 13.9238 71.1914 13.4629 71.1914 12.916V12.5469C71.1914 12.1367 71.1504 11.7773 71.0684 11.4688C70.9902 11.1562 70.873 10.8965 70.7168 10.6895C70.5605 10.4785 70.3652 10.3203 70.1309 10.2148C69.9004 10.1094 69.6348 10.0566 69.334 10.0566H67.4355V8.46875H69.334C69.9121 8.46875 70.4414 8.56836 70.9219 8.76758C71.4062 8.96289 71.8242 9.24414 72.1758 9.61133C72.5312 9.97461 72.8047 10.4062 72.9961 10.9062C73.1914 11.4023 73.2891 11.9531 73.2891 12.5586V12.916C73.2891 13.5176 73.1914 14.0684 72.9961 14.5684C72.8047 15.0684 72.5332 15.5 72.1816 15.8633C71.8301 16.2266 71.4141 16.5078 70.9336 16.707C70.457 16.9023 69.9336 17 69.3633 17ZM68.6484 8.46875V17H66.5918V8.46875H68.6484ZM80.2324 15.418V17H75.6855V15.418H80.2324ZM76.418 8.46875V17H74.3613V8.46875H76.418ZM79.6465 11.8555V13.3848H75.6855V11.8555H79.6465ZM80.25 8.46875V10.0566H75.6855V8.46875H80.25Z" fill="black"/>
<path d="M82.7578 16.6027V13.3414L89.6364 5.63306L86.7953 2.96477V0L92.7767 5.63306L82.7578 16.6027Z" fill="black"/>
<path d="M81.3262 9.19782V11.7368L86.765 5.91213L82.2326 1.43164V4.11993L84.1967 5.91213L81.3262 9.19782Z" fill="black"/>
<circle cx="68.8238" cy="2.43315" r="2.43315" fill="#454545"/>
</svg>
